<svg xmlns="http://www.w3.org/2000/svg" viewBox="0 0 682 682">
    <defs>
        <style>
        .a {
            fill: transparent;
        }
        .b {
            fill: #921f56;
        }
        .c {
            fill: #ffffff;
        }
        </style>
    </defs>
    <title>Stoppuhr</title>
    <rect class="a" width="682" height="682" />
    <path class="b" d="M386.68,152.83H295.31v24.49h91.37V152.83Zm68.66,32.4-15.92,19.18,40.66,33.75L496,219l-40.66-33.75ZM341,188.17a170.5,170.5,0,1,0,170.5,170.5A170.5,170.5,0,0,0,341,188.17ZM454.05,298.11l-4-7,23.66-13.66,4,7ZM337,203.19H345v27.32H337ZM212.77,362.76H185.45v-8.07h27.32Zm15.16,56.58,4,7L208.31,440l-4-7ZM208.31,277.47,232,291.13l-4,7-23.66-13.66Zm65.08,190.29,7,4-13.66,23.66-7-4ZM266.72,222l13.66,23.66-7,4L259.73,226ZM337,487H345v27.32H337Zm71.64-19.2,13.66,23.66-7,4-13.66-23.66ZM415.27,222l7,4L408.6,249.7l-7-4Zm38.79,197.33L477.71,433l-4,7L450,426.34Zm42.48-64.65v8.07H469.21v-8.07Z" />
    <path class="c" d="M345,338.22V243.11H337v95.12a20.84,20.84,0,0,0,0,40.88V408.9H345V379.11a20.84,20.84,0,0,0,0-40.89Zm-4,33.22a12.77,12.77,0,1,1,12.77-12.77A12.79,12.79,0,0,1,341,371.44Z">
		<animateTransform attributeName="transform"
			attributeType="XML"
			type="rotate"
			from="0 341 359"
			to="360 341 359"
			dur="2s"
			repeatCount="indefinite" />
	</path>
</svg>