<?xml version="1.0" standalone="no"?>
<!DOCTYPE svg PUBLIC "-//W3C//DTD SVG 1.1//EN" "http://www.w3.org/Graphics/SVG/1.1/DTD/svg11.dtd">
<svg xmlns="http://www.w3.org/2000/svg">
<metadata>Copyright (C) 2020 by original authors @ fontello.com</metadata>
<defs>
<font id="berec-icons" horiz-adv-x="1000" >
<font-face font-family="berec-icons" font-weight="400" font-stretch="normal" units-per-em="1000" ascent="850" descent="-150" />
<missing-glyph horiz-adv-x="1000" />
<glyph glyph-name="watch-inverse" unicode="&#x42;" d="M601 767h-202v-54h203v54l-1 0z m152-72l-35-42 90-75 35 42-90 75 0 0z m-253-7c-208 0-377-169-377-377 0-208 169-378 377-378s378 170 378 378c0 208-170 377-378 377z m294-197l9-16-53-30-8 16 52 30z m-303 164h17v-61h-17v61z m-335-335h61v-17h-61v17z m50-189l-9 16 52 30 9-16-52-30z m44 314l-52 30 9 16 52-30-9-16z m86-437l-16 10 30 52 16-9-30-53z m14 545l-30 52 16 9 30-52-16-9z m159-586h-17v61h17v-61z m0 299v-66h-17v66c-21 4-38 22-38 45 0 22 16 41 38 45v211h17v-211c21-4 38-23 38-45s-17-41-38-45z m155-258l-30 53 16 9 30-52-16-10z m-14 545l-16 9 30 52 16-9-30-52z m144-422l-52 30 9 16 52-30-9-16z m-10 171v17h61v-17h-61z m-256 9c0-16-12-28-28-28s-28 12-28 28c0 16 12 28 28 28s28-12 28-28z" horiz-adv-x="1000" />

<glyph glyph-name="traffic-in" unicode="&#x49;" d="M917 319h-734v0c160-218 170-224 181-246l-54-30c-16 25 44-62-212 289l0 0 0 0-15 18 14 18c256 351 196 264 212 290l54-31c-11-22-20-28-180-246h734v-62z" horiz-adv-x="1000" />

<glyph glyph-name="traffic-out" unicode="&#x4a;" d="M83 381h734v0c-160 218-169 224-180 246l54 31c16-26-44 61 212-290l0 0 0 0 14-18-14-18c-256-351-196-264-212-289l-54 30c11 22 21 28 181 246h-735v62z" horiz-adv-x="1000" />

<glyph glyph-name="hourglass" unicode="&#x4f;" d="M500 175l63-25a177 177 0 0 0 113-164v1h-352v-1a177 177 0 0 0 113 164l63 25m-142 286a175 175 0 0 1 79-61l63-24 63 24a175 175 0 0 1 79 61z m371 103v185h103v18h-667v-18h106v-185a229 229 0 0 1 147-214 229 229 0 0 1-147-214v-185h-106v-18h667v18h-103v185a229 229 0 0 1-147 214 229 229 0 0 1 147 214z m-153-197l-43-17 43-17a213 213 0 0 0 135-197v-185h-422v185a213 213 0 0 0 135 197l44 17-44 17a213 213 0 0 0-135 197v185h422v-185a213 213 0 0 0-135-197z" horiz-adv-x="1000" />

<glyph glyph-name="scroll-down" unicode="&#x56;" d="M506 244l-3-5-3 1-2-1-4 5-291 168 19 33 278-160 278 160 19-33z" horiz-adv-x="1000" />

<glyph glyph-name="watch" unicode="&#x62;" d="M500 687c-207 0-377-169-377-377 0-207 170-377 377-377s377 170 377 377c0 208-169 377-377 377z m0-737c-198 0-360 162-360 360s162 360 360 360 360-162 360-360-162-360-360-360z m8 405v210h-16v-210c-22-4-38-22-38-45s16-42 38-45v-66h16v66c22 4 38 23 38 45s-16 41-38 45z m-8-74c-16 0-29 13-29 29 0 16 13 29 29 29s29-13 29-29c0-16-13-29-29-29z m-100 486v-56h200v56h-200z m183-39h-166v22h166v-22z m170-34l-35-42 89-75 36 42-90 75z m53-93l-64 53 14 17 64-53-14-17z m-298 53h-16v-60h16v60z m0-628h-16v-60h16v60z m336 292h-60v-16h60v16z m-628 0h-60v-16h60c0 0 0 16 0 16z m149 242l-30 52-14-9 30-51 14 8z m314-543l-30 51-14-8 30-52 14 9z m123 458l-9 14-51-30 8-14 52 30z m-544-314l-8 14-52-30 9-14 51 30z m0 298l-51 30-9-14 52-30 8 14z m544-314l-52 30-8-14 51-30 9 14z m-123 458l-14 9-30-52 14-8 30 51z m-314-543l-14 8-30-51 14-9 30 52z" horiz-adv-x="1000" />

<glyph glyph-name="system" unicode="&#x64;" d="M600 348c0-55-45-100-100-100s-100 45-100 100 45 100 100 100 100-45 100-100z m-396 332c-27 0-50-22-50-50s23-50 50-50 50 23 50 50-22 50-50 50z m296 85c-94 0-181-31-251-84 4-4 9-8 12-13 67 50 149 80 239 80 220 0 399-180 399-400s-179-399-399-399-399 179-399 399c0 83 26 160 69 225-5 3-10 6-14 10-46-66-73-147-73-235 0-230 187-416 417-416s417 186 417 416c0 230-187 417-417 417z m257-252c-28 0-50-23-50-50s22-50 50-50 50 22 50 50-23 50-50 50z m12-117c3-16 4-32 4-48 0-151-122-275-274-275s-273 124-273 275 123 274 274 274c88 0 165-41 216-105 5 3 10 6 16 9-54 69-138 114-232 114-161 0-292-131-292-292s131-291 292-291 292 131 292 291c0 19-2 37-5 55-5-4-11-5-18-7z" horiz-adv-x="1000" />

<glyph glyph-name="company" unicode="&#x66;" d="M725 600v167h-450v-167h-192v-667h192 17 105 206 105 17 192v667h-192z m-451-649h-173v632h172v-632z m140 0v172h77v-172h-77z m172 0h-77v172h77v-172z m122 0h-105v190h-206v-189h-104v797h414v-798z m191 0h-173v632h172v-632z m-428 607h-42v84h42v-84z m-100 0h-42v84h42v-84z m-163-116h-41v100h41v-100z m0-150h-41v100h41v-100z m0-150h-41v100h41v-100z m625 300h-41v100h41v-100z m0-150h-41v100h41v-100z m0-150h-41v100h41v-100z m-625-150h-41v100h41v-100z m625 0h-41v100h41v-100z m-262 566h-42v84h42v-84z m100 0h-42v84h42v-84z m-200-166h-42v83h42v-83z m-100 0h-42v83h42v-83z m200 0h-42v83h42v-83z m100 0h-42v83h42v-83z m-200-167h-42v83h42v-83z m-100 0h-42v83h42v-83z m200 0h-42v83h42v-83z m100 0h-42v83h42v-83z" horiz-adv-x="1000" />

<glyph glyph-name="device" unicode="&#x67;" d="M703-67h-406c-26 0-47 21-47 47v740c0 26 21 47 47 47h406c25 0 46-21 46-47v-740c0-26-21-47-46-47z m-406 817c-17 0-30-13-30-30v-740c0-17 13-30 30-30h406c16 0 30 13 30 30v740c0 17-14 30-30 30h-406z m381-85v-543h-355v543h355m15 17h-386v-577h386v577l0 0z m-170-629c3 0 6-3 6-7v-45c0-4-2-7-6-7h-45c-4 0-7 3-7 7v45c0 3 2 7 7 7h45m0 16h-45c-13 0-23-10-23-22v-45c0-13 10-23 23-23h45c12 0 22 10 22 23v45c0 11-10 22-22 22l0 0z m10 657h-65c-5 0-9-4-9-9 0-5 4-9 9-9h65c5 0 9 4 9 9 0 5-4 9-9 9z" horiz-adv-x="1000" />

<glyph glyph-name="start" unicode="&#x68;" d="M509 281h-17v486h17v-486z m54 341v-19c151-29 266-163 266-323 0-182-147-329-329-329s-329 148-329 330c0 160 115 294 267 323v19c-162-30-285-171-285-342 0-192 155-348 347-348s348 156 348 348c0 170-124 312-285 341z" horiz-adv-x="1000" />

<glyph glyph-name="history" unicode="&#x69;" d="M752 342h-224l-162 271 15 9 157-264h214v-16z m-219 391c-211 0-383-171-383-383 0-60 14-119 41-172l-100 46-8-16 131-60 45 137-16 5-36-108c-26 51-40 110-40 168 0 202 164 367 366 367s367-164 367-367-164-367-367-367c-75 0-148 23-210 66l-10-14c65-45 141-69 220-69 212 0 384 172 384 383 0 213-173 384-384 384z" horiz-adv-x="1000" />

<glyph glyph-name="map" unicode="&#x6a;" d="M540 719c-163 0-297-133-297-296 0-165 134-298 297-298s297 133 297 297c0 164-134 297-297 297z m0-576c-154 0-279 125-279 279s125 279 279 279 279-125 279-279c0-154-125-279-279-279z m8-192h152v-18h-320v18h152v95c-204 4-369 172-369 377 0 148 88 284 225 344l7-16c-130-58-213-187-213-328 0-199 161-360 359-360 50 0 98 10 143 30l7-15c-45-20-93-30-142-31v-96h-1z" horiz-adv-x="1000" />

<glyph glyph-name="search" unicode="&#x6b;" d="M917-30l-359 359c38 47 60 106 60 170 0 148-120 268-267 268-148 0-268-120-268-268 0-147 120-267 268-267 64 0 123 23 170 61l359-360 37 37z m-816 529c0 139 112 250 250 250 138 0 250-112 250-250 0-138-113-250-250-250-138-1-250 112-250 250z" horiz-adv-x="1000" />

<glyph glyph-name="statistics" unicode="&#x6c;" d="M500 749c220 0 399-179 399-399s-179-399-399-399-399 179-399 399 179 399 399 399m0 18c-230 0-417-187-417-417s187-417 417-417 417 187 417 417-187 417-417 417l0 0z m243-575v191h-70v-191h-69v366h-71v-366h-66v291h-70v-291h-69v125h-62v-125h-61v-17h592v17h-54z" horiz-adv-x="1000" />

<glyph glyph-name="help" unicode="&#x6d;" d="M500 749c220 0 399-179 399-399s-179-399-399-399-399 179-399 399 179 399 399 399m0 18c-230 0-417-187-417-417s187-417 417-417 417 187 417 417-187 417-417 417l0 0z m-29-483c0 89 97 96 97 174 0 40-32 70-80 70-39 0-68-22-68-22l-12 18c0 0 31 27 80 27 63 0 104-40 104-93 0-90-98-96-98-174v-24h-23v24z m-4-85h31v-33h-31v33z" horiz-adv-x="1000" />

<glyph glyph-name="opendata" unicode="&#x6e;" d="M421 610l0 0c71 0 133-37 167-98l7-14 15 5c15 7 32 10 48 10 22 0 43-5 61-16 36-22 58-62 60-110l1-14 13-3c61-13 106-73 106-139 0-80-69-141-161-141h-486c-84 0-151 68-151 151 0 69 47 130 114 147l14 3-1 15c-3 52 17 106 55 145 36 38 85 59 138 59m0 18l0 0c-127 0-216-111-209-224-74-17-129-84-129-163 0-93 76-168 169-168h486c105 0 178 70 178 158 0 71-48 141-120 157-3 58-30 101-68 125-22 12-46 19-70 19-19 0-38-4-55-11-33 59-97 107-182 107l0 0z m117-195h-135v-263h195v204l-60 59z m5-30l25-25h-25v25z m-123-215v227h105v-54h55v-173h-160z" horiz-adv-x="1000" />

<glyph glyph-name="about" unicode="&#x6f;" d="M500 749c220 0 399-179 399-399s-179-399-399-399-399 179-399 399 179 399 399 399m0 18c-230 0-417-187-417-417s187-417 417-417 417 187 417 417-187 417-417 417l0 0z m16-251h-33v33h33v-33z m-3-348h-24v285h24v-285z" horiz-adv-x="1000" />

<glyph glyph-name="settings" unicode="&#x70;" d="M500 274c-42 0-76 34-76 76 0 42 34 76 76 76 42 0 76-34 76-76 0-42-34-76-76-76z m0 134c-32 0-57-26-57-58 0-32 25-57 57-57 32 0 58 25 58 57 0 32-26 58-58 58z m417-68v20h-58c-1 25-4 50-10 73l56 15-5 20-56-15c-7 24-16 47-28 68l50 29-10 18-50-30c-13 21-28 41-45 59l41 41-14 14-41-41c-18 17-38 32-59 45l30 50-18 10-29-50c-22 12-44 21-68 28l15 56-20 5-15-56c-24 6-48 9-73 9l0 58h-20l0-58c-25 0-50-4-73-10l-15 56-20-4 15-56c-24-7-47-16-68-28l-29 50-17-10 29-50c-21-13-41-28-59-45l-40 41-15-14 41-41c-16-18-31-38-45-59l-50 30-10-18 50-29c-11-22-21-44-28-68l-56 15-5-20 56-15c-6-24-9-48-9-73h-59v-20h58c1-25 4-50 10-73l-56-15 5-20 56 15c7-24 17-47 28-68l-50-29 10-17 50 29c14-21 29-41 45-59l-41-40 15-15 40 41c18-16 38-31 59-45l-29-50 17-10 29 50c22-11 44-21 69-28l-15-56 20-5 15 56c23-6 47-9 72-9l0-58h20l0 58c25 0 50 4 73 10l15-56 20 5-15 56c24 7 47 16 68 28l29-50 18 10-30 50c21 13 41 28 59 45l41-41 14 14-41 41c17 18 32 38 45 59l50-30 10 18-50 29c12 22 21 44 28 68l56-15 5 20-56 15c6 24 9 48 9 73h59z m-408 152v199c184-4 333-156 333-341 0-59-15-114-42-162l-172 100c9 19 15 40 15 62 0 76-60 138-134 142z m-136-205l-173-99c-27 48-42 104-42 162 0 185 149 337 333 341v-199c-74-5-133-67-133-142 0-22 5-44 15-63z m127 187c68 0 124-56 124-124 0-68-56-124-124-124-68 0-124 56-124 124 0 68 56 124 124 124z m0-466c-122 0-231 65-291 164l173 100c26-39 69-64 118-64 49 0 93 26 118 65l173-100c-60-99-168-165-291-165z" horiz-adv-x="1000" />

<glyph glyph-name="ping" unicode="&#x71;" d="M638 341h-35v17h35v-17z m104 18h-70v-17h70v17z m175 0h-140v-17h140v17z m-519 0h-35v-17h35v17z m-70 0h-70v-17h70v17z m-105 0h-140v-17h140v17z m394 64l-11 15-28-21 10-14 29 20z m84 62l-11 14-56-41 11-14 56 41z m142 103l-11 14-114-83 11-14 114 83z m-420-305l-11 14-29-20 11-14 29 20z m-57-41l-11 14-57-41 11-14 57 41z m-84-62l-11 14-113-82 10-14 114 82z m269 298l-17 5-11-33 17-6 11 34z m32 100l-16 5-22-66 17-6 21 67z m55 165l-17 6-43-133 16-6 44 133z m-161-493l-17 6-11-33 17-6 11 33z m-22-66l-17 6-21-67 16-5 22 66z m-32-100l-16 6-44-133 17-6 43 133z m54 366l-11 33-17-5 11-34 17 6z m-22 66l-22 67-16-6 21-67 17 6z m-32 100l-43 133-17-6 44-133 16 6z m128-393l-11 33-17-6 11-33 17 6z m32-100l-21 66-17-6 22-66 16 6z m55-166l-44 133-16-6 43-133 17 6z m-215 461l-29 20-11-15 29-20 11 15z m-57 40l-57 41-11-14 57-41 11 14z m-84 62l-114 83-10-15 113-82 11 14z m335-243l-29 21-10-15 28-20 11 14z m84-62l-57 41-10-14 57-41 10 14z m142-102l-114 82-11-14 114-83 11 15z" horiz-adv-x="1000" />

<glyph glyph-name="down" unicode="&#x72;" d="M917-67h-834v18h834v-18z m-159 456c-6-3-186-135-249-181v559h-17v-559c-64 46-243 178-249 181l-10-16c8-4 160-116 262-190l5-4 5 4c102 75 254 186 262 190l-9 16z" horiz-adv-x="1000" />

<glyph glyph-name="up" unicode="&#x73;" d="M917-67h-834v18h834v-18z m-674 624c5 3 185 135 249 181v-559h17v559c64-46 243-178 249-181l10 16c-8 4-160 116-262 190l-6 4-5-4c-102-74-254-186-262-190l10-16z" horiz-adv-x="1000" />

<glyph glyph-name="wifi" unicode="&#x75;" d="M500 299c67 0 128-22 177-61l-49-48c-35 26-80 42-128 42-47 0-92-15-128-42l-49 48c50 39 110 61 177 61z m-54-182l54-54 54 54c-16 8-35 13-54 13s-38-5-54-13z m54 521c-160 0-306-60-417-160l49-48c98 88 227 140 368 140s270-52 368-139l49 48c-111 99-257 159-417 159z m-297-279l49-48c67 56 154 90 248 90s181-34 248-90l49 48c-80 69-184 109-297 109-113 0-217-40-297-109z" horiz-adv-x="1000" />

<glyph glyph-name="check" unicode="&#x76;" d="M383 23l-300 277 35 38 260-240 500 579 39-34-534-620z" horiz-adv-x="1000" />

<glyph glyph-name="close" unicode="&#x77;" d="M536 350l381-381-36-36-381 381-381-381-36 36 381 381-381 381 36 36 381-381 381 381 36-36-381-381z" horiz-adv-x="1000" />

<glyph glyph-name="location" unicode="&#x78;" d="M500 266c-47 0-84 37-84 84s37 84 84 84 84-37 84-84-37-84-84-84z m0 150c-37 0-66-30-66-66 0-37 30-66 66-66 37 0 66 30 66 66 0 37-29 66-66 66z m9 351h-17v-271h17v271z m0-563h-17v-271h17v271z m-155 155h-271v-17h271v17z m563 0h-271v-17h271v17z m-372 291c132-19 236-123 255-256h18c-20 142-131 254-273 274v-18z m-345-256c19 133 123 237 256 256v18c-142-20-254-131-273-273h17z m256-344c-133 19-237 123-256 255h-18c20-142 131-254 273-273v18z m344 255c-19-132-123-236-255-255v-18c142 20 254 131 273 273h-18z" horiz-adv-x="1000" />

<glyph glyph-name="share-android" unicode="&#xc0;" d="M808 150v0a108 108 0 0 1-92-52l-424 212a107 107 0 0 1 0 80l424 212a108 108 0 1 1 92 165v0a108 108 0 0 1-100-149l-424-212a108 108 0 1 1 0-112l424-212a108 108 0 1 1 100 68z m0 599h5a93 93 0 1 0-5 0z m-616-489a91 91 0 1 0 90 90 91 91 0 0 0-90-90z m616-309a90 90 0 1 0 0 181h5a91 91 0 0 0-5-181z" horiz-adv-x="1000" />

<glyph glyph-name="share-ios" unicode="&#xc1;" d="M917-67h-834v417h18v-399h798v399h18z m-684 640c8 4 161 116 262 190l5 4 5-4c101-74 254-186 262-190l-9-16c-6 3-186 135-249 181v-558h-18v558c-63-46-243-178-249-181z" horiz-adv-x="1000" />

<glyph glyph-name="language" unicode="&#xdf;" d="M500 749c220 0 399-179 399-399s-179-399-399-399c-57 0-112 11-163 35l-9 3-7-4c-53-28-115-34-158-34-9 0-16 0-24 1 23 20 49 56 67 115l2 10-6 7c-64 74-101 168-101 266 0 220 179 399 399 399m0 18c-230 0-417-187-417-417 0-107 40-204 106-277-36-121-104-133-104-133s33-7 78-7c49 0 112 7 167 36 52-23 110-37 170-37 230 0 417 187 417 417s-187 418-417 418l0 0z" horiz-adv-x="1000" />

<glyph glyph-name="voip" unicode="&#xe0;" d="M192 387v-74h-18v28h-91v18h91v28h18z m721-32l0 0 0 0c-74 101-57 76-61 84l-16-9c3-6 6-8 52-71v0h-96v28h-18v-74h18v28h96c-46-63-49-64-52-71l16-8c4 7-13-18 61 83l4 5-4 5z m-521 71h-18v-152h18v152z m-150-15h-18v-122h18v122z m100 0h-18v-122h18v122z m-50 33h-18v-188h18v188z m150 30h-18v-248h18v248z m100 0h-18v-248h18v248z m-50 67h-18v-382h18v382z m100-115h-18v-152h18v152z m50-15h-18v-122h18v122z m100 0h-18v-122h18v122z m-50 33h-18v-188h18v188z" horiz-adv-x="1000" />

<glyph glyph-name="dns" unicode="&#xe1;" d="M404 350l-4-5c-74-101-56-76-61-83l-15 8c3 7 6 8 52 71h-293v18h293v0c-46 63-49 65-52 71l15 9c5-8-13 17 61-84l0 0 0 0 4-5z m490 9h-285c-71 97-54 72-59 80l-15-9c3-6 12-17 58-80-46-63-55-73-58-80l15-8c5 7-12-18 59 79h285v18z" horiz-adv-x="1000" />

<glyph glyph-name="arrow-average" unicode="&#xe4;" d="M917 350l-194-172-20 23 150 133h-770v31h767l0 3-147 131 21 23 193-172z" horiz-adv-x="1000" />

<glyph glyph-name="web-rendering" unicode="&#xe8;" d="M348 243l-200 101 200 113 8-16-170-96 170-86-8-16z m233 260l-17 8-145-314 16-8 146 314z m271-147l-200 101-8-16 170-86-170-96 9-16 199 113z" horiz-adv-x="1000" />

<glyph glyph-name="http-proxy" unicode="&#xe9;" d="M404 558l-4-5c-74-101-56-76-61-83l-15 9c3 6 6 8 52 70h-293v18h293v0c-46 63-49 65-52 71l15 9c5-7-13 18 61-83l0 0 0 0 4-6z m-4-203l0 0 0 0c-74 101-56 76-61 84l-15-9c3-6 6-8 52-71v0h-293v-18h293c-46-63-49-64-52-71l15-8c5 7-13-18 61 83l4 5-4 5z m0-208l0 0 0 0c-74 101-56 76-61 83l-15-9c3-6 6-7 52-70v0h-293v-18h293c-46-63-49-65-52-71l15-9c5 8-13-18 61 83l4 6-4 5z m513 208l0 0 0 0c-74 101-57 76-61 84l-16-9c3-6 6-8 52-71v0h-295v-18h295c-46-63-49-64-52-71l16-8c4 7-13-18 61 83l4 5-4 5z m-404 287h-18v-584h18v584z" horiz-adv-x="1000" />

<glyph glyph-name="qos" unicode="&#xeb;" d="M500 749c18 0 36-15 56-31a175 175 0 0 1 53-33 128 128 0 0 1 39-5c9 0 17 0 25 0s16 1 23 1c19 0 30-2 38-8 14-10 20-33 27-56a178 178 0 0 1 23-60 176 176 0 0 1 49-41c21-13 41-26 46-43s-3-37-11-59c-8-21-16-42-16-64s8-43 16-64c8-22 16-44 11-59s-25-30-46-43a175 175 0 0 1-49-41 177 177 0 0 1-23-60c-7-23-13-46-27-56-7-6-19-8-37-8-8 0-16 0-24 1s-16 0-25 0a128 128 0 0 1-39-5 175 175 0 0 1-53-33c-19-16-38-31-56-31s-36 15-56 31a175 175 0 0 1-52 33 128 128 0 0 1-40 5c-8 0-17 0-25 0s-16-1-23-1c-18 0-30 2-38 8-14 10-20 33-26 56a178 178 0 0 1-24 60 176 176 0 0 1-49 41c-21 13-41 26-46 43s3 37 12 59c7 21 16 42 16 64s-9 43-16 64c-9 22-17 44-12 59s25 30 46 43a175 175 0 0 1 49 41 177 177 0 0 1 23 60c7 23 13 46 27 56 8 6 19 8 38 8 7 0 15 0 23-1s16 0 25 0a128 128 0 0 1 40 4 175 175 0 0 1 53 34c19 16 37 31 55 31m0 18c-42 0-76-53-114-65a112 112 0 0 0-34-5c-16 0-33 2-48 2a80 80 0 0 1-49-12c-33-24-30-86-54-120s-84-49-97-88c-12-38 27-87 27-129s-39-90-27-129c13-39 73-55 97-88s21-96 54-120a80 80 0 0 1 49-12c15 0 32 2 48 2a112 112 0 0 0 34-4c38-13 72-66 114-66s76 53 114 65a112 112 0 0 0 34 5c16 0 33-2 49-2a80 80 0 0 1 48 12c33 24 30 86 54 120s84 49 97 88c13 39-27 87-27 129s40 91 27 129c-13 39-73 55-97 88s-21 96-54 120a80 80 0 0 1-48 12c-16 0-33-2-49-2a112 112 0 0 0-34 4c-38 13-72 66-114 66z m187-264l-14 12-172-216-90 90-12-13 104-103z m39-153h-18a208 208 0 1 0-208 208v18a226 226 0 1 1 226-226z" horiz-adv-x="1000" />

<glyph glyph-name="udp" unicode="&#xec;" d="M321 558l-4-5c-74-101-57-76-61-83l-16 9c4 6 6 8 52 70h-209v18h209v0c-46 63-48 65-52 71l16 9c4-7-13 18 61-83l0 0 0 0 4-6z m295 6l0 0 0 0c-74 101-57 76-61 83l-16-9c4-6 6-8 52-71v0h-211v-18h211c-46-62-48-64-52-70l16-9c4 7-13-18 61 83l4 5-4 6z m297 0l0 0 0 0c-74 101-57 76-61 83l-16-9c3-6 6-8 52-71v0h-211v-18h211c-46-62-49-64-52-70l16-9c4 7-13-18 61 83l4 5-4 6z m4-413h-209c46 63 48 64 52 70l-16 9c-4-7 13 18-61-83l-4-5 4-6 0 0 0 0c74-101 57-75 61-83l16 9c-4 6-6 8-52 71v0h209v18z m-297 0h-211c46 63 48 64 52 70l-16 9c-4-7 13 18-61-83l-4-5 4-6 0 0 0 0c74-101 57-75 61-83l16 9c-4 6-6 8-52 71v0h211v18z m-297 0h-211c46 63 49 64 52 70l-15 9c-5-7 12 18-62-83l-4-5 4-6 0 0 0 0c74-101 57-75 62-83l15 9c-3 6-6 8-52 71v0h211v18z" horiz-adv-x="1000" />

<glyph glyph-name="non-transparent" unicode="&#xed;" d="M404 350l-4-5c-74-101-56-76-61-83l-15 8c3 7 6 8 52 71h-293v18h293v0c-46 63-49 65-52 71l15 9c5-8-13 17 61-84l0 0 0 0 4-5z m168-80c-3 7-12 17-58 80l6 9c46 63 49 65 52 71l-15 9c-5-7 10 14-48-65v268h-18v-268c-58 79-43 58-48 65l-15-9c3-6 12-17 58-80l-6-9c-46-63-49-64-52-71l15-8c5 6-10-15 48 64v-268h18v268c58-79 43-58 48-64l15 8z" horiz-adv-x="1000" />

<glyph glyph-name="adjustment" unicode="&#xf2;" d="M453 619c0 0 0 0 0 0-5 42-40 75-83 75-43 0-79-33-83-75 0 0 0 0 0 0h-204v-17h204c0 0 0 0 0 0 4-42 40-75 83-75 43 0 78 33 83 75 0 0 0 0 0 0h464v17h-464z m-83-74c-36 0-66 29-66 65s30 66 66 66c36 0 65-29 65-66s-29-65-65-65z m473-186c0 0 0 0 0 0-4 42-40 74-83 74s-78-32-82-74c0 0 0 0 0 0h-595v-18h595c4-42 39-74 82-74s79 32 83 74h74v18h-74z m-83-74c-36 0-65 29-65 65s29 66 65 66 66-30 66-66-29-65-66-65z m-307-186c-5 41-40 74-83 74-43 0-79-33-83-74h-204v-18h204c4-42 40-75 83-75 43 0 78 33 83 75h464v18h-464z m-83-75c-36 0-66 30-66 66 0 36 30 65 66 65 36 0 65-29 65-65 0-36-29-66-65-66z" horiz-adv-x="1000" />

<glyph glyph-name="tcp" unicode="&#xf3;" d="M917 558l-4-5c-74-101-57-76-61-83l-16 9c3 6 6 8 52 70h-805v18h805v0c-46 63-49 65-52 71l16 9c4-7-13 18 61-83l0 0 0 0 4-6z m0-407h-805c46 63 49 64 52 70l-15 9c-5-7 12 18-62-83l-4-5 4-6 0 0 0 0c74-101 57-75 62-83l15 9c-3 6-6 8-52 71v0h805v18z" horiz-adv-x="1000" />

<glyph glyph-name="filter" unicode="&#xf9;" d="M917 698h-834v-18h48l310-285v-408l118 75v333l310 285h48v18z m-373-293l-3-3v-331l-82-52v383l-301 278h685l-299-275z" horiz-adv-x="1000" />

<glyph glyph-name="traceroute" unicode="&#xfa;" d="M917 549h-621l112-193h509v-18h-311l108-187h174v0c-46 63-49 64-52 70l16 9c4-7-13 18 61-83l0 0 0 0 4-5-4-6c-74-101-57-75-61-83l-16 9c3 6 6 8 52 71l-184 0-119 205h-188l-122 211h-192v18h834v-18z" horiz-adv-x="1000" />

<glyph glyph-name="echo-protocol" unicode="&#xfb;" d="M917 549h-709c46-62 49-64 52-70l-16-9c-4 8 13-18-61 84l-4 4 4 6h0c75 101 57 76 61 83l16-9c-3-6-6-8-52-71h709z m-4-402h0c-75 101-57 76-62 83l-16-8c4-7 6-8 53-71h-709v-18h709c-47-63-49-65-53-71l16-9c5 8-13-18 62 84l4 5z m-821 495h-18v-584h18z" horiz-adv-x="1000" />
</font>
</defs>
</svg>
